<svg width="25" height="23" viewBox="0 0 25 23" fill="none" xmlns="http://www.w3.org/2000/svg">
<path d="M8.07251 12.025L11.4511 15.175L17.082 8.875" stroke="#16A34A" stroke-linecap="round" stroke-linejoin="round"/>
<path d="M8.07251 12.025L11.4511 15.175L17.082 8.875" stroke="black" stroke-opacity="0.2" stroke-linecap="round" stroke-linejoin="round"/>
<path d="M12.5773 22C18.7971 22 23.8392 17.299 23.8392 11.5C23.8392 5.70101 18.7971 1 12.5773 1C6.35755 1 1.31543 5.70101 1.31543 11.5C1.31543 17.299 6.35755 22 12.5773 22Z" stroke="#16A34A"/>
<path d="M12.5773 22C18.7971 22 23.8392 17.299 23.8392 11.5C23.8392 5.70101 18.7971 1 12.5773 1C6.35755 1 1.31543 5.70101 1.31543 11.5C1.31543 17.299 6.35755 22 12.5773 22Z" stroke="black" stroke-opacity="0.2"/>
</svg>
