<svg width="27" height="22" viewBox="0 0 27 22" fill="none" xmlns="http://www.w3.org/2000/svg">
<path d="M4.41625 6.88235L19.8373 1L22.3047 6.88235H4.41625ZM1.33203 6.88235H26.0058V10.4118C24.1552 10.4118 22.3047 11.5882 22.3047 13.6471C22.3047 15.7059 24.1552 17.4706 26.0058 17.4706V21H1.33203V17.4706C3.18256 17.4706 5.03309 16.2941 5.03309 13.9412C5.03309 11.5882 3.18256 10.4118 1.33203 10.4118V6.88235Z" stroke="#16A34A" stroke-linecap="round" stroke-linejoin="round"/>
<path d="M4.41625 6.88235L19.8373 1L22.3047 6.88235H4.41625ZM1.33203 6.88235H26.0058V10.4118C24.1552 10.4118 22.3047 11.5882 22.3047 13.6471C22.3047 15.7059 24.1552 17.4706 26.0058 17.4706V21H1.33203V17.4706C3.18256 17.4706 5.03309 16.2941 5.03309 13.9412C5.03309 11.5882 3.18256 10.4118 1.33203 10.4118V6.88235Z" stroke="black" stroke-opacity="0.2" stroke-linecap="round" stroke-linejoin="round"/>
<path d="M9.35059 15.9322H17.9864M9.35059 12.4028H13.0516H9.35059Z" stroke="#16A34A" stroke-linecap="round"/>
<path d="M9.35059 15.9322H17.9864M9.35059 12.4028H13.0516H9.35059Z" stroke="black" stroke-opacity="0.2" stroke-linecap="round"/>
</svg>
