<svg width="30" height="30" viewBox="0 0 30 30" fill="none" xmlns="http://www.w3.org/2000/svg">
<circle cx="15" cy="15" r="15" fill="url(#paint0_linear_767_4445)"/>
<path d="M15.851 13.149C15.1343 12.4326 14.1624 12.0301 13.149 12.0301C12.1356 12.0301 11.1637 12.4326 10.447 13.149L7.74411 15.851C7.02738 16.5677 6.62473 17.5398 6.62473 18.5534C6.62473 19.567 7.02738 20.5391 7.74411 21.2559C8.46084 21.9726 9.43294 22.3753 10.4465 22.3753C11.4602 22.3753 12.4323 21.9726 13.149 21.2559L14.5 19.9049" stroke="white" stroke-width="2" stroke-linecap="round" stroke-linejoin="round"/>
<path d="M13.149 15.851C13.8657 16.5674 14.8376 16.9699 15.851 16.9699C16.8644 16.9699 17.8363 16.5674 18.553 15.851L21.2559 13.149C21.9726 12.4323 22.3752 11.4602 22.3752 10.4465C22.3752 9.43294 21.9726 8.46084 21.2559 7.74411C20.5391 7.02738 19.567 6.62473 18.5534 6.62473C17.5398 6.62473 16.5677 7.02738 15.851 7.74411L14.5 9.09511" stroke="white" stroke-width="2" stroke-linecap="round" stroke-linejoin="round"/>
<defs>
<linearGradient id="paint0_linear_767_4445" x1="30" y1="14.7273" x2="-3" y2="14.7273" gradientUnits="userSpaceOnUse">
<stop stop-color="#FA5936"/>
<stop offset="1" stop-color="#FF6D3F" stop-opacity="0.84"/>
</linearGradient>
</defs>
</svg>
