<svg width="32" height="30" viewBox="0 0 32 30" fill="none" xmlns="http://www.w3.org/2000/svg">
<path d="M17.2 13.125C16.4 12.9375 15.6 12.5625 15 12C14.4 11.8125 14.2 11.25 14.2 10.875C14.2 10.5 14.4 9.9375 14.8 9.75C15.4 9.375 16 9 16.6 9.1875C17.8 9.1875 18.8 9.75 19.4 10.5L21.2 8.25C20.6 7.6875 20 7.3125 19.4 6.9375C18.8 6.5625 18 6.375 17.2 6.375V3.75H14.8V6.375C13.8 6.5625 12.8 7.125 12 7.875C11.2 8.8125 10.6 9.9375 10.8 11.0625C10.8 12.1875 11.2 13.3125 12 14.0625C13 15 14.4 15.5625 15.6 16.125C16.2 16.3125 17 16.6875 17.6 17.0625C18 17.4375 18.2 18 18.2 18.5625C18.2 19.125 18 19.6875 17.6 20.25C17 20.8125 16.2 21 15.6 21C14.8 21 13.8 20.8125 13.2 20.25C12.6 19.875 12 19.3125 11.6 18.75L9.6 20.8125C10.2 21.5625 10.8 22.125 11.6 22.6875C12.6 23.25 13.8 23.8125 15 23.8125V26.25H17.2V23.4375C18.4 23.25 19.4 22.6875 20.2 21.9375C21.2 21 21.8 19.5 21.8 18.1875C21.8 17.0625 21.4 15.75 20.4 15C19.4 14.0625 18.4 13.5 17.2 13.125ZM16 0C7.2 0 0 6.75 0 15C0 23.25 7.2 30 16 30C24.8 30 32 23.25 32 15C32 6.75 24.8 0 16 0ZM16 27.9375C8.4 27.9375 2.2 22.125 2.2 15C2.2 7.875 8.4 2.0625 16 2.0625C23.6 2.0625 29.8 7.875 29.8 15C29.8 22.125 23.6 27.9375 16 27.9375Z" fill="black"/>
</svg>
