<svg width="17" height="16" viewBox="0 0 17 16" fill="none" xmlns="http://www.w3.org/2000/svg">
<rect width="17" height="16" fill="#A3A3A3"/>
<path d="M11.5025 4.2068C11.6522 4.07269 11.8513 3.99855 12.058 4.00002C12.2646 4.00149 12.4626 4.07846 12.6101 4.21469C12.7576 4.35092 12.8431 4.53575 12.8486 4.73018C12.854 4.92461 12.779 5.11343 12.6394 5.2568L8.4 10.2468C8.32711 10.3207 8.23912 10.38 8.14132 10.4212C8.04351 10.4623 7.93789 10.4845 7.83077 10.4864C7.72365 10.4882 7.61723 10.4698 7.51787 10.432C7.41851 10.3943 7.32826 10.3381 7.2525 10.2668L4.44113 7.6208C4.36284 7.55214 4.30004 7.46934 4.25649 7.37734C4.21293 7.28534 4.18951 7.18603 4.18762 7.08533C4.18574 6.98462 4.20542 6.88459 4.2455 6.79121C4.28558 6.69782 4.34523 6.61298 4.4209 6.54176C4.49657 6.47055 4.58671 6.4144 4.68593 6.37668C4.78516 6.33896 4.89144 6.32043 4.99843 6.32221C5.10543 6.32399 5.21095 6.34603 5.3087 6.38702C5.40645 6.42801 5.49442 6.48712 5.56738 6.5608L7.79225 8.6538L11.4823 4.2288C11.489 4.2211 11.4961 4.21376 11.5036 4.2068H11.5025Z" fill="white"/>
</svg>
