<svg width="34" height="32" viewBox="0 0 34 32" fill="none" xmlns="http://www.w3.org/2000/svg">
<path d="M5.15072 4.1265C5.2011 3.72334 5.39702 3.35247 5.70164 3.08361C6.00625 2.81474 6.39859 2.66642 6.80489 2.6665H27.1949C27.6012 2.66642 27.9935 2.81474 28.2981 3.08361C28.6028 3.35247 28.7987 3.72334 28.8491 4.1265L31.7657 27.4598C31.795 27.6944 31.7741 27.9324 31.7044 28.1583C31.6347 28.3841 31.5177 28.5925 31.3612 28.7697C31.2048 28.9468 31.0125 29.0887 30.797 29.1858C30.5816 29.283 30.3479 29.3332 30.1116 29.3332H3.88822C3.65187 29.3332 3.41822 29.283 3.20276 29.1858C2.9873 29.0887 2.79497 28.9468 2.63853 28.7697C2.4821 28.5925 2.36513 28.3841 2.29539 28.1583C2.22566 27.9324 2.20475 27.6944 2.23405 27.4598L5.15072 4.1265V4.1265Z" stroke="white" stroke-width="4" stroke-linejoin="round"/>
<path d="M9.5 11C9.5 11 11.1667 14.3333 17 14.3333C22.8333 14.3333 24.5 11 24.5 11" stroke="white" stroke-width="4" stroke-linecap="round" stroke-linejoin="round"/>
</svg>
