<svg width="44" height="44" viewBox="0 0 44 44" fill="none" xmlns="http://www.w3.org/2000/svg">
<path d="M19.25 20.625C19.25 20.2603 19.3949 19.9106 19.6527 19.6527C19.9106 19.3949 20.2603 19.25 20.625 19.25H28.875C29.2397 19.25 29.5894 19.3949 29.8473 19.6527C30.1051 19.9106 30.25 20.2603 30.25 20.625C30.25 20.9897 30.1051 21.3394 29.8473 21.5973C29.5894 21.8551 29.2397 22 28.875 22H20.625C20.2603 22 19.9106 21.8551 19.6527 21.5973C19.3949 21.3394 19.25 20.9897 19.25 20.625ZM19.25 28.875C19.25 28.5103 19.3949 28.1606 19.6527 27.9027C19.9106 27.6449 20.2603 27.5 20.625 27.5H28.875C29.2397 27.5 29.5894 27.6449 29.8473 27.9027C30.1051 28.1606 30.25 28.5103 30.25 28.875C30.25 29.2397 30.1051 29.5894 29.8473 29.8473C29.5894 30.1051 29.2397 30.25 28.875 30.25H20.625C20.2603 30.25 19.9106 30.1051 19.6527 29.8473C19.3949 29.5894 19.25 29.2397 19.25 28.875ZM15.125 22C15.4897 22 15.8394 21.8551 16.0973 21.5973C16.3551 21.3394 16.5 20.9897 16.5 20.625C16.5 20.2603 16.3551 19.9106 16.0973 19.6527C15.8394 19.3949 15.4897 19.25 15.125 19.25C14.7603 19.25 14.4106 19.3949 14.1527 19.6527C13.8949 19.9106 13.75 20.2603 13.75 20.625C13.75 20.9897 13.8949 21.3394 14.1527 21.5973C14.4106 21.8551 14.7603 22 15.125 22ZM15.125 30.25C15.4897 30.25 15.8394 30.1051 16.0973 29.8473C16.3551 29.5894 16.5 29.2397 16.5 28.875C16.5 28.5103 16.3551 28.1606 16.0973 27.9027C15.8394 27.6449 15.4897 27.5 15.125 27.5C14.7603 27.5 14.4106 27.6449 14.1527 27.9027C13.8949 28.1606 13.75 28.5103 13.75 28.875C13.75 29.2397 13.8949 29.5894 14.1527 29.8473C14.4106 30.1051 14.7603 30.25 15.125 30.25ZM13.9838 5.5C14.2682 4.69541 14.7952 3.99885 15.4922 3.50633C16.1891 3.0138 17.0216 2.74955 17.875 2.75H26.125C26.9784 2.74955 27.8109 3.0138 28.5078 3.50633C29.2048 3.99885 29.7318 4.69541 30.0163 5.5H31.625C32.719 5.5 33.7682 5.9346 34.5418 6.70819C35.3154 7.48177 35.75 8.53098 35.75 9.625V37.125C35.75 38.219 35.3154 39.2682 34.5418 40.0418C33.7682 40.8154 32.719 41.25 31.625 41.25H12.375C11.281 41.25 10.2318 40.8154 9.45818 40.0418C8.6846 39.2682 8.25 38.219 8.25 37.125V9.625C8.25 8.53098 8.6846 7.48177 9.45818 6.70819C10.2318 5.9346 11.281 5.5 12.375 5.5H13.9838ZM17.875 5.5C17.5103 5.5 17.1606 5.64487 16.9027 5.90273C16.6449 6.16059 16.5 6.51033 16.5 6.875C16.5 7.23967 16.6449 7.58941 16.9027 7.84727C17.1606 8.10513 17.5103 8.25 17.875 8.25H26.125C26.4897 8.25 26.8394 8.10513 27.0973 7.84727C27.3551 7.58941 27.5 7.23967 27.5 6.875C27.5 6.51033 27.3551 6.16059 27.0973 5.90273C26.8394 5.64487 26.4897 5.5 26.125 5.5H17.875ZM13.9838 8.25H12.375C12.0103 8.25 11.6606 8.39487 11.4027 8.65273C11.1449 8.91059 11 9.26033 11 9.625V37.125C11 37.4897 11.1449 37.8394 11.4027 38.0973C11.6606 38.3551 12.0103 38.5 12.375 38.5H31.625C31.9897 38.5 32.3394 38.3551 32.5973 38.0973C32.8551 37.8394 33 37.4897 33 37.125V9.625C33 9.26033 32.8551 8.91059 32.5973 8.65273C32.3394 8.39487 31.9897 8.25 31.625 8.25H30.0163C29.7318 9.05459 29.2048 9.75115 28.5078 10.2437C27.8109 10.7362 26.9784 11.0004 26.125 11H17.875C17.0216 11.0004 16.1891 10.7362 15.4922 10.2437C14.7952 9.75115 14.2682 9.05459 13.9838 8.25Z" fill="white"/>
</svg>
