<svg width="34" height="33" viewBox="0 0 34 33" fill="none" xmlns="http://www.w3.org/2000/svg">
<path d="M32.4726 11.793L22.5546 10.3516L18.121 1.3633C17.9999 1.1172 17.8007 0.917983 17.5546 0.796889C16.9374 0.492202 16.1874 0.746108 15.8788 1.3633L11.4452 10.3516L1.52723 11.793C1.2538 11.832 1.0038 11.961 0.81239 12.1563C0.580991 12.3941 0.453479 12.7141 0.457874 13.0459C0.462268 13.3777 0.59821 13.6942 0.835828 13.9258L8.01161 20.9219L6.3163 30.8008C6.27654 31.0306 6.30197 31.267 6.3897 31.483C6.47744 31.6991 6.62396 31.8863 6.81266 32.0234C7.00136 32.1604 7.22469 32.2418 7.45731 32.2584C7.68994 32.275 7.92256 32.2261 8.1288 32.1172L16.9999 27.4531L25.871 32.1172C26.1132 32.2461 26.3944 32.2891 26.664 32.2422C27.3437 32.125 27.8007 31.4805 27.6835 30.8008L25.9882 20.9219L33.164 13.9258C33.3593 13.7344 33.4882 13.4844 33.5272 13.211C33.6327 12.5274 33.1562 11.8945 32.4726 11.793ZM22.9686 19.9375L24.3788 28.1524L16.9999 24.2774L9.62099 28.1563L11.0311 19.9414L5.06239 14.1211L13.3124 12.9219L16.9999 5.44923L20.6874 12.9219L28.9374 14.1211L22.9686 19.9375Z" fill="#28EC70"/>
<path d="M32.4726 11.793L22.5546 10.3516L18.121 1.3633C17.9999 1.1172 17.8007 0.917983 17.5546 0.796889C16.9374 0.492202 16.1874 0.746108 15.8788 1.3633L11.4452 10.3516L1.52723 11.793C1.2538 11.832 1.0038 11.961 0.81239 12.1563C0.580991 12.3941 0.453479 12.7141 0.457874 13.0459C0.462268 13.3777 0.59821 13.6942 0.835828 13.9258L8.01161 20.9219L6.3163 30.8008C6.27654 31.0306 6.30197 31.267 6.3897 31.483C6.47744 31.6991 6.62396 31.8863 6.81266 32.0234C7.00136 32.1604 7.22469 32.2418 7.45731 32.2584C7.68994 32.275 7.92256 32.2261 8.1288 32.1172L16.9999 27.4531L25.871 32.1172C26.1132 32.2461 26.3944 32.2891 26.664 32.2422C27.3437 32.125 27.8007 31.4805 27.6835 30.8008L25.9882 20.9219L33.164 13.9258C33.3593 13.7344 33.4882 13.4844 33.5272 13.211C33.6327 12.5274 33.1562 11.8945 32.4726 11.793ZM22.9686 19.9375L24.3788 28.1524L16.9999 24.2774L9.62099 28.1563L11.0311 19.9414L5.06239 14.1211L13.3124 12.9219L16.9999 5.44923L20.6874 12.9219L28.9374 14.1211L22.9686 19.9375Z" fill="black" fill-opacity="0.2"/>
</svg>
