<svg width="39" height="29" viewBox="0 0 39 29" fill="none" xmlns="http://www.w3.org/2000/svg">
<path d="M3.9 2.71875C3.9 1.21721 5.20955 0 6.825 0H22.425C24.0398 0 25.35 1.21721 25.35 2.71875V14.5H37.05V19.9375C38.1286 19.9375 39 20.7475 39 21.75C39 22.7525 38.1286 23.5625 37.05 23.5625H35.1C35.1 26.5645 32.4797 29 29.25 29C25.9655 29 23.4 26.5645 23.4 23.5625H15.6C15.6 26.5645 12.9797 29 9.75 29C6.46547 29 3.9 26.5645 3.9 23.5625V16.3125H12.675C13.2113 16.3125 13.65 15.9047 13.65 15.4062C13.65 14.9078 13.2113 14.5 12.675 14.5H0.975C0.436556 14.5 0 14.0922 0 13.5938C0 13.0953 0.436556 12.6875 0.975 12.6875H14.625C15.1613 12.6875 15.6 12.2797 15.6 11.7812C15.6 11.2828 15.1613 10.875 14.625 10.875H2.925C2.38631 10.875 1.95 10.4672 1.95 9.96875C1.95 9.47031 2.38631 9.0625 2.925 9.0625H16.575C17.1112 9.0625 17.55 8.65469 17.55 8.15625C17.55 7.65781 17.1112 7.25 16.575 7.25H0.975C0.436556 7.25 0 6.84219 0 6.34375C0 5.84531 0.436556 5.4375 0.975 5.4375H3.9V2.71875ZM9.75 26.2812C11.3648 26.2812 12.675 25.0635 12.675 23.5625C12.675 22.0615 11.3648 20.8438 9.75 20.8438C8.13516 20.8438 6.825 22.0615 6.825 23.5625C6.825 25.0635 8.13516 26.2812 9.75 26.2812ZM29.25 20.8438C27.6352 20.8438 26.325 22.0615 26.325 23.5625C26.325 25.0635 27.6352 26.2812 29.25 26.2812C30.8648 26.2812 32.175 25.0635 32.175 23.5625C32.175 22.0615 30.8648 20.8438 29.25 20.8438ZM28.4395 9.0625H24.375V5.4375H28.4395C29.4755 5.4375 30.4139 5.81699 31.2 6.49668L35.9105 10.875C36.6417 11.5547 37.05 12.4779 37.05 13.4408V16.3125H33.15V13.4408L28.4395 9.0625Z" fill="#28EC70"/>
<path d="M3.9 2.71875C3.9 1.21721 5.20955 0 6.825 0H22.425C24.0398 0 25.35 1.21721 25.35 2.71875V14.5H37.05V19.9375C38.1286 19.9375 39 20.7475 39 21.75C39 22.7525 38.1286 23.5625 37.05 23.5625H35.1C35.1 26.5645 32.4797 29 29.25 29C25.9655 29 23.4 26.5645 23.4 23.5625H15.6C15.6 26.5645 12.9797 29 9.75 29C6.46547 29 3.9 26.5645 3.9 23.5625V16.3125H12.675C13.2113 16.3125 13.65 15.9047 13.65 15.4062C13.65 14.9078 13.2113 14.5 12.675 14.5H0.975C0.436556 14.5 0 14.0922 0 13.5938C0 13.0953 0.436556 12.6875 0.975 12.6875H14.625C15.1613 12.6875 15.6 12.2797 15.6 11.7812C15.6 11.2828 15.1613 10.875 14.625 10.875H2.925C2.38631 10.875 1.95 10.4672 1.95 9.96875C1.95 9.47031 2.38631 9.0625 2.925 9.0625H16.575C17.1112 9.0625 17.55 8.65469 17.55 8.15625C17.55 7.65781 17.1112 7.25 16.575 7.25H0.975C0.436556 7.25 0 6.84219 0 6.34375C0 5.84531 0.436556 5.4375 0.975 5.4375H3.9V2.71875ZM9.75 26.2812C11.3648 26.2812 12.675 25.0635 12.675 23.5625C12.675 22.0615 11.3648 20.8438 9.75 20.8438C8.13516 20.8438 6.825 22.0615 6.825 23.5625C6.825 25.0635 8.13516 26.2812 9.75 26.2812ZM29.25 20.8438C27.6352 20.8438 26.325 22.0615 26.325 23.5625C26.325 25.0635 27.6352 26.2812 29.25 26.2812C30.8648 26.2812 32.175 25.0635 32.175 23.5625C32.175 22.0615 30.8648 20.8438 29.25 20.8438ZM28.4395 9.0625H24.375V5.4375H28.4395C29.4755 5.4375 30.4139 5.81699 31.2 6.49668L35.9105 10.875C36.6417 11.5547 37.05 12.4779 37.05 13.4408V16.3125H33.15V13.4408L28.4395 9.0625Z" fill="black" fill-opacity="0.2"/>
</svg>
