<svg width="34" height="33" viewBox="0 0 34 33" fill="none" xmlns="http://www.w3.org/2000/svg">
<path d="M32.4728 11.793L22.5548 10.3516L18.1212 1.3633C18.0001 1.1172 17.8009 0.917983 17.5548 0.796889C16.9376 0.492202 16.1876 0.746108 15.879 1.3633L11.4454 10.3516L1.52748 11.793C1.25404 11.832 1.00404 11.961 0.812634 12.1563C0.581235 12.3941 0.453723 12.7141 0.458118 13.0459C0.462513 13.3777 0.598454 13.6942 0.836072 13.9258L8.01186 20.9219L6.31654 30.8008C6.27679 31.0306 6.30222 31.267 6.38995 31.483C6.47768 31.6991 6.6242 31.8863 6.8129 32.0234C7.0016 32.1604 7.22493 32.2418 7.45756 32.2584C7.69018 32.275 7.92281 32.2261 8.12904 32.1172L17.0001 27.4531L25.8712 32.1172C26.1134 32.2461 26.3947 32.2891 26.6642 32.2422C27.3439 32.125 27.8009 31.4805 27.6837 30.8008L25.9884 20.9219L33.1642 13.9258C33.3595 13.7344 33.4884 13.4844 33.5275 13.211C33.633 12.5274 33.1564 11.8945 32.4728 11.793ZM22.9689 19.9375L24.3791 28.1524L17.0001 24.2774L9.62123 28.1563L11.0314 19.9414L5.06264 14.1211L13.3126 12.9219L17.0001 5.44923L20.6876 12.9219L28.9376 14.1211L22.9689 19.9375Z" fill="white"/>
</svg>
