<svg width="39" height="35" viewBox="0 0 39 35" fill="none" xmlns="http://www.w3.org/2000/svg">
<path d="M34.6667 4.375C37.0568 4.375 39 6.3335 39 8.75V26.25C39 28.6631 37.0568 30.625 34.6667 30.625H4.33333C1.93984 30.625 0 28.6631 0 26.25V8.75C0 6.3335 1.93984 4.375 4.33333 4.375H34.6667ZM18.4167 13.125C17.8208 13.125 17.3333 13.6172 17.3333 14.2188C17.3333 14.8203 17.8208 15.3125 18.4167 15.3125H33.5833C34.1792 15.3125 34.6667 14.8203 34.6667 14.2188C34.6667 13.6172 34.1792 13.125 33.5833 13.125H18.4167ZM18.4167 21.875H33.5833C34.1792 21.875 34.6667 21.3828 34.6667 20.7812C34.6667 20.1797 34.1792 19.6875 33.5833 19.6875H18.4167C17.8208 19.6875 17.3333 20.1797 17.3333 20.7812C17.3333 21.3828 17.8208 21.875 18.4167 21.875ZM11.1109 10.9375C11.1109 10.1787 10.5016 9.56348 9.68906 9.56348C8.99844 9.56348 8.38906 10.1787 8.38906 10.9375V11.3477C8.0099 11.4297 7.5901 11.5459 7.3125 11.6963C6.30094 12.1611 5.42141 13.0225 5.20745 14.2734C5.0876 14.9707 5.15125 15.6475 5.43833 16.2559C5.71932 16.8574 6.16146 17.2812 6.61036 17.5889C7.39375 18.1289 8.42969 18.4434 9.22188 18.6826L9.37083 18.7236C10.3188 19.0176 10.9552 19.2295 11.3547 19.5234C11.524 19.6465 11.5849 19.7422 11.6052 19.8037C11.6323 19.8584 11.6729 19.9814 11.6255 20.2549C11.5849 20.4941 11.4563 20.6992 11.0839 20.8564C10.6708 21.0342 10.0005 21.123 9.13385 20.9863C8.7276 20.918 8.00313 20.6719 7.3599 20.4531C7.21094 20.3984 7.06198 20.3506 6.92656 20.3027C6.21833 20.0635 5.4512 20.4531 5.2149 21.1709C4.97859 21.8887 5.3625 22.6611 6.07208 22.8389C6.15401 22.9277 6.25557 22.9619 6.37203 23.0029C6.84531 23.1875 7.74583 23.4746 8.38906 23.625V24.0625C8.38906 24.8213 8.99844 25.4365 9.68906 25.4365C10.5016 25.4365 11.1109 24.8213 11.1109 24.0625V23.6865C11.4698 23.6182 11.8219 23.4541 12.1469 23.3721C13.2167 22.9141 14.0698 22.0254 14.2932 20.7266C14.4151 20.0156 14.3609 19.332 14.0901 18.71C13.826 18.0947 13.3995 17.6436 12.9458 17.3154C12.1266 16.707 11.0297 16.3789 10.2104 16.126L10.0953 16.1123C9.19479 15.8184 8.54479 15.6133 8.13177 15.3262C7.95573 15.2031 7.90156 15.1211 7.88802 15.0869C7.87448 15.0596 7.83385 14.9775 7.87448 14.7451C7.90156 14.6084 8.00313 14.3828 8.42969 14.1914C8.80885 13.9932 9.5401 13.8838 10.3661 13.9521C10.6641 14.0615 11.5781 14.2393 11.8422 14.3076C12.5599 14.5059 13.3047 14.0684 13.4943 13.3369C13.6906 12.6123 13.2573 11.8604 12.5328 11.6689C12.2349 11.5869 11.5578 11.4502 11.1109 11.3682V10.9375Z" fill="#28EC70"/>
<path d="M34.6667 4.375C37.0568 4.375 39 6.3335 39 8.75V26.25C39 28.6631 37.0568 30.625 34.6667 30.625H4.33333C1.93984 30.625 0 28.6631 0 26.25V8.75C0 6.3335 1.93984 4.375 4.33333 4.375H34.6667ZM18.4167 13.125C17.8208 13.125 17.3333 13.6172 17.3333 14.2188C17.3333 14.8203 17.8208 15.3125 18.4167 15.3125H33.5833C34.1792 15.3125 34.6667 14.8203 34.6667 14.2188C34.6667 13.6172 34.1792 13.125 33.5833 13.125H18.4167ZM18.4167 21.875H33.5833C34.1792 21.875 34.6667 21.3828 34.6667 20.7812C34.6667 20.1797 34.1792 19.6875 33.5833 19.6875H18.4167C17.8208 19.6875 17.3333 20.1797 17.3333 20.7812C17.3333 21.3828 17.8208 21.875 18.4167 21.875ZM11.1109 10.9375C11.1109 10.1787 10.5016 9.56348 9.68906 9.56348C8.99844 9.56348 8.38906 10.1787 8.38906 10.9375V11.3477C8.0099 11.4297 7.5901 11.5459 7.3125 11.6963C6.30094 12.1611 5.42141 13.0225 5.20745 14.2734C5.0876 14.9707 5.15125 15.6475 5.43833 16.2559C5.71932 16.8574 6.16146 17.2812 6.61036 17.5889C7.39375 18.1289 8.42969 18.4434 9.22188 18.6826L9.37083 18.7236C10.3188 19.0176 10.9552 19.2295 11.3547 19.5234C11.524 19.6465 11.5849 19.7422 11.6052 19.8037C11.6323 19.8584 11.6729 19.9814 11.6255 20.2549C11.5849 20.4941 11.4563 20.6992 11.0839 20.8564C10.6708 21.0342 10.0005 21.123 9.13385 20.9863C8.7276 20.918 8.00313 20.6719 7.3599 20.4531C7.21094 20.3984 7.06198 20.3506 6.92656 20.3027C6.21833 20.0635 5.4512 20.4531 5.2149 21.1709C4.97859 21.8887 5.3625 22.6611 6.07208 22.8389C6.15401 22.9277 6.25557 22.9619 6.37203 23.0029C6.84531 23.1875 7.74583 23.4746 8.38906 23.625V24.0625C8.38906 24.8213 8.99844 25.4365 9.68906 25.4365C10.5016 25.4365 11.1109 24.8213 11.1109 24.0625V23.6865C11.4698 23.6182 11.8219 23.4541 12.1469 23.3721C13.2167 22.9141 14.0698 22.0254 14.2932 20.7266C14.4151 20.0156 14.3609 19.332 14.0901 18.71C13.826 18.0947 13.3995 17.6436 12.9458 17.3154C12.1266 16.707 11.0297 16.3789 10.2104 16.126L10.0953 16.1123C9.19479 15.8184 8.54479 15.6133 8.13177 15.3262C7.95573 15.2031 7.90156 15.1211 7.88802 15.0869C7.87448 15.0596 7.83385 14.9775 7.87448 14.7451C7.90156 14.6084 8.00313 14.3828 8.42969 14.1914C8.80885 13.9932 9.5401 13.8838 10.3661 13.9521C10.6641 14.0615 11.5781 14.2393 11.8422 14.3076C12.5599 14.5059 13.3047 14.0684 13.4943 13.3369C13.6906 12.6123 13.2573 11.8604 12.5328 11.6689C12.2349 11.5869 11.5578 11.4502 11.1109 11.3682V10.9375Z" fill="black" fill-opacity="0.2"/>
</svg>
