<svg width="202" height="151" viewBox="0 0 202 151" fill="none" xmlns="http://www.w3.org/2000/svg">
<path d="M10.5784 0C10.6103 0.38094 10.6316 0.761879 10.6316 1.15436C10.6316 8.01127 6.02811 13.7023 0 14.7989V24.1608C6.02811 25.2574 10.6316 30.9485 10.6316 37.8054C10.6316 44.6623 6.02811 50.3533 0 51.4499V60.8118C6.02811 61.9085 10.6316 67.5995 10.6316 74.4564C10.6316 81.3133 6.02811 87.0043 0 88.1009V97.4628C6.02811 98.5595 10.6316 104.25 10.6316 111.107C10.6316 117.964 6.02811 123.655 0 124.752V134.114C6.02811 135.21 10.6316 140.901 10.6316 147.758C10.6316 148.543 10.5572 149.317 10.4402 150.067H202V0H10.5784Z" fill="#FA5936"/>
</svg>
