<svg width="202" height="150" viewBox="0 0 202 150" fill="none" xmlns="http://www.w3.org/2000/svg">
<path d="M2.16622 11.6162C8.23164 9.19192 11.5532 2.86195 12.4558 0H202V150H9.74799C10.1812 146.768 8.8454 143.603 8.12332 142.424C7.69008 140.404 2.52726 138.552 0 137.879L0.541555 121.212C7.04022 120.808 9.74799 114.983 10.2895 112.121C9.8563 104.848 3.9714 101.683 1.08311 101.01V84.8485L2.16622 84.3434C9.09812 82.7273 10.8311 76.936 10.8311 74.2424C9.53137 67.7778 4.51296 64.8148 2.16622 64.1414V47.4747C8.66488 45.4545 10.6506 41.5825 10.8311 39.899C11.2643 31.8182 5.23503 28.4512 2.16622 27.7778V11.6162Z" fill="#FA5936"/>
</svg>
